# xmcd
#
# Track frame offsets:
# 150
# 13372
# 25440
# 45082
# 63572
# 83327
# 97042
# 113990
# 129992
# 157560
# 173455
# 184727
#
# Disc length: 2683 seconds
#
#
# Revision: 0
# Processed by: cddbd v1.5.2PL0 Copyright (c) Steve Scherf et al.
# Submitted via: Nero 7, 11, 10, 0 
#
DISCID=860a790c
DTITLE=Big Mark and The Blues Express - Steak And Potatoes
DYEAR=2001
DGENRE=Blues
TTITLE0=They Call Me Big Mark
TTITLE1=My Baby's Gone
TTITLE2=Built For Comfort
TTITLE3=Mule Kicking In My Stall
TTITLE4=Alimony Blues
TTITLE5=Caldonia
TTITLE6=Tiger Man
TTITLE7=Oh, Pretty Woman
TTITLE8=I'm Tired
TTITLE9=I Ain't Got You
TTITLE10=She's Dynamite
TTITLE11=You Treat Me Wrong
EXTD=
EXTT0=They Call Me Big Mark
EXTT1=My Baby's Gone
EXTT2=Built For Comfort
EXTT3=Mule Kicking In My Stall
EXTT4=Alimony Blues
EXTT5=Caldonia
EXTT6=Tiger Man
EXTT7=Oh, Pretty Woman
EXTT8=I'm Tired
EXTT9=I Ain't Got You
EXTT10=She's Dynamite
EXTT11=You Treat Me Wrong
PLAYORDER=
